<?xml version="1.0" encoding="UTF-8" standalone="no"?>
<svg
   xmlns:dc="http://purl.org/dc/elements/1.1/"
   xmlns:cc="http://creativecommons.org/ns#"
   xmlns:rdf="http://www.w3.org/1999/02/22-rdf-syntax-ns#"
   xmlns:svg="http://www.w3.org/2000/svg"
   xmlns="http://www.w3.org/2000/svg"
   xmlns:sodipodi="http://sodipodi.sourceforge.net/DTD/sodipodi-0.dtd"
   xmlns:inkscape="http://www.inkscape.org/namespaces/inkscape"
   id="Calque_1"
   data-name="Calque 1"
   viewBox="0 0 78.07 71.45"
   fit=""
   height="100%"
   width="100%"
   preserveAspectRatio="xMidYMid meet"
   focusable="false"
   version="1.1"
   sodipodi:docname="monster.svg"
   inkscape:version="0.92.4 (unknown)">
  <metadata
     id="metadata3771">
    <rdf:RDF>
      <cc:Work
         rdf:about="">
        <dc:format>image/svg+xml</dc:format>
        <dc:type
           rdf:resource="http://purl.org/dc/dcmitype/StillImage" />
      </cc:Work>
    </rdf:RDF>
  </metadata>
  <defs
     id="defs3769" />
  <sodipodi:namedview
     pagecolor="#ffffff"
     bordercolor="#666666"
     borderopacity="1"
     objecttolerance="10"
     gridtolerance="10"
     guidetolerance="10"
     inkscape:pageopacity="0"
     inkscape:pageshadow="2"
     inkscape:window-width="1366"
     inkscape:window-height="704"
     id="namedview3767"
     showgrid="false"
     inkscape:zoom="7.1938418"
     inkscape:cx="12.136994"
     inkscape:cy="52.405934"
     inkscape:window-x="0"
     inkscape:window-y="27"
     inkscape:window-maximized="1"
     inkscape:current-layer="Calque_1" />
  <title
     id="title3762">gui_craft_special</title>
  <path
     style="fill:#000;stroke-width:0.80000001"
     d="m 22.269173,36.744807 c 0.4,0.6 6,7.464 7.2,8 1.2,0.536 4.2,0.064 4.8,-0.8 0.6,-0.864 0,-3.064 -0.8,-4 -0.8,-0.936 -4.4,-4.2 -5.6,-4.8 -1.2,-0.6 -4.936,-1.264 -5.6,-0.8 -0.664,0.464 -0.44,1.8 0,2.4 z m 48,2.4 a 5.552,5.552 0 0 1 -0.8,3.2 c -0.4,0.6 -10.152,12.704 -10.4,12.8 -0.248,0.096 -1.448,-0.952 -1.6,-1.6 -0.152,-0.648 1.752,-7.552 1.6,-8 -0.152,-0.448 0.048,-0.8 -0.8,-0.8 -0.848,0 -9.848,6.2 -10.4,8.8 -0.552,2.6 -1.048,9.848 -1.6,10.4 -0.552,0.552 -5.104,0.4 -5.6,0 -0.496,-0.4 -1.104,-5.6 -1.6,-5.6 -0.496,0 -1.752,5.248 -2.4,5.6 -0.648,0.352 -4.552,0.4 -4.8,0 -0.248,-0.4 -0.6,-10 -0.8,-11.2 -0.2,-1.2 -11.752,-8.8 -12,-8 -0.248,0.8 2.496,8.304 2.4,8.8 a 2.936,2.936 0 0 1 -1.6,1.6 c -0.552,0.104 -11.7999997,-13.048 -11.9999997,-13.6 -0.2,-0.552 1.6,-3.2 1.6,-3.2 0,0 5.2479997,-1.848 5.5999997,-2.4 0.352,-0.552 1.752,-16.048 2.4,-16.8 0.648,-0.752 15,-11.4000002 16,-11.2000002 a 3.848,3.848 0 0 1 2.4,1.6 c 0.2,0.5520002 0.096,12.0480002 0.8,12.8000002 0.704,0.752 4.248,0.648 4.8,0 0.552,-0.648 1.296,-10.896 1.6,-12 0.304,-1.1040002 1.048,-3.2480002 2.4,-3.2000002 1.352,0.048 15.552,11.7040002 16,12.8000002 0.448,1.096 1.696,16 2.4,16.8 0.704,0.8 6.16,1.448 6.4,2.4 z m -21.6,4.8 c 2.064,-0.864 8.664,-9.464 8,-9.6 a 21.752,21.752 0 0 0 -7.2,1.6 c -2,1 -5.864,6.864 -5.6,8 0.264,1.136 2.696,0.864 4.8,0 z"
     id="path3764"
     inkscape:connector-curvature="0" />
</svg>
